<?xml version="1.0" encoding="UTF-8"?>
<svg id="Capa_1" data-name="Capa 1" xmlns="http://www.w3.org/2000/svg" viewBox="0 0 16 9.79">
  <defs>
    <style>
      .cls-1 {
        fill: #d58e08;
      }

      .cls-2 {
        fill: #1d1d1b;
      }
    </style>
  </defs>
  <g>
    <g>
      <path class="cls-1" d="M12.11,6.29c-1.04-1.68-.14-4.5-.13-4.53l.1,.03s-.89,2.8,.12,4.44l-.09,.06Z"/>
      <g>
        <path class="cls-1" d="M11.89,1.56s-.45-1.46,.03-1.56,.26,1.45,.24,1.56c0,0,.87-1.4,1.23-.86,.2,.3-.81,.96-1.04,.98,0,0,1.29-.36,1.38,.03,.09,.39-.99,.36-1.41,.23,0,0,1.24,.41,.93,.84-.32,.43-1.09-.69-1.09-.69,0,0,.55,1.44,.07,1.43-.48-.01-.33-1.34-.33-1.34,0,0-.61,1.04-.95,.82-.34-.21,.43-.93,.88-1.04,0,0-1.22,.43-1.42-.05-.2-.48,1.16-.3,1.4-.15,0,0-1.41-.68-1.13-1.11,.28-.43,1.19,.91,1.19,.91Z"/>
        <path class="cls-2" d="M12.07,1.54c.43,.01,.36,.58-.09,.58s-.33-.59,.09-.58Z"/>
      </g>
    </g>
    <path class="cls-1" d="M11.58,5.12s-.89,.04-1.17-.8c0,0,.79-.08,1.17,.8Z"/>
    <path class="cls-1" d="M11.51,4.03s-1.07,.05-1.41-.97c0,0,.95-.09,1.41,.97Z"/>
    <path class="cls-1" d="M12.88,3.51s.05,1.06-.97,1.4c0,0-.09-.94,.97-1.4Z"/>
  </g>
  <path class="cls-1" d="M11.99,6.55c-.31,.79-.64,1.58-.99,2.44-.78-1.81-1.53-3.56-2.28-5.29-.33,0-.65,.01-.99,.01-.42,0-.83,0-1.23-.02,.07,.16,.15,.32,.23,.47,.1,.21,.15,.39,.05,.62-.57,1.29-1.13,2.59-1.72,3.96-.11-.19-.19-.32-.25-.46-.55-1.24-1.08-2.5-1.64-3.74-.16-.36-.25-.8-.41-1.15C1.75,3.27,.83,3.1,.01,2.9c-.03,.09,.01,.23,.1,.42,.95,2.15,1.88,4.31,2.81,6.47h3.63c.43-.98,.85-1.97,1.28-2.96,.47,1,.93,1.98,1.39,2.96h3.77c1.01-2.34,2-4.66,3.01-6.99-.04,0-.08,0-.12,0-.78,.21-1.66,.39-2.63,.53-.39,1.08-.83,2.15-1.25,3.22Z"/>
</svg>