<?xml version="1.0" encoding="UTF-8"?>
<svg id="OBJECTS" xmlns="http://www.w3.org/2000/svg" xmlns:xlink="http://www.w3.org/1999/xlink" viewBox="0 0 584.57 484.95">
  <defs>
    <style>
      .cls-1 {
        fill: #01bec0;
      }

      .cls-2 {
        fill: #fff;
      }

      .cls-3 {
        stroke-width: 1.21px;
      }

      .cls-3, .cls-4, .cls-5, .cls-6, .cls-7, .cls-8, .cls-9, .cls-10 {
        fill: none;
      }

      .cls-3, .cls-4, .cls-5, .cls-6, .cls-7, .cls-8, .cls-10 {
        stroke-linecap: round;
        stroke-linejoin: round;
      }

      .cls-3, .cls-4, .cls-6, .cls-7, .cls-8, .cls-10 {
        stroke: #333c4b;
      }

      .cls-11 {
        opacity: .5;
      }

      .cls-4 {
        stroke-width: .81px;
      }

      .cls-5 {
        stroke: #03918d;
        stroke-width: .82px;
      }

      .cls-12 {
        fill: #03918d;
      }

      .cls-13 {
        fill: #333c4b;
      }

      .cls-14 {
        clip-path: url(#clippath-1);
      }

      .cls-15 {
        fill: #f5d089;
      }

      .cls-16 {
        fill: #d58e08;
      }

      .cls-6 {
        stroke-width: .89px;
      }

      .cls-7 {
        stroke-width: .84px;
      }

      .cls-8 {
        stroke-width: .8px;
      }

      .cls-17 {
        clip-path: url(#clippath);
      }

      .cls-18 {
        fill: #f4bd56;
      }

      .cls-19 {
        fill: #f4daab;
      }

      .cls-10 {
        stroke-width: 1.33px;
      }

      .cls-20 {
        fill: #f5b63d;
      }
    </style>
    <clipPath id="clippath">
      <path class="cls-9" d="m584.36,259.79c5.26,56.87-91.61,79-127.71,117.71-39.56,42.43-95.95,68.96-158.54,68.96-79.26,0-148.58-42.55-186.37-106.04C92.46,308.01,0,191.53,0,151.1c0-75.44,96.68-12.85,122.62-48.57C162.01,48.27,225.94,12.99,298.12,12.99c66.41,0,125.85,29.87,165.6,76.91,31.9,37.74,111.29,68.87,120.65,169.89Z"/>
    </clipPath>
    <clipPath id="clippath-1">
      <circle class="cls-9" cx="298.12" cy="229.72" r="216.73"/>
    </clipPath>
  </defs>
  <circle class="cls-2" cx="298.12" cy="229.72" r="216.73"/>
  <g class="cls-17">
    <g class="cls-14">
      <g class="cls-11">
        <rect class="cls-19" x="38.2" width="519.62" height="137.59"/>
        <rect class="cls-15" x="38.2" y="68.8" width="519.62" height="142.46"/>
        <rect class="cls-18" x="38.2" y="141.81" width="519.62" height="142.47"/>
        <rect class="cls-20" x="38.2" y="217.64" width="519.62" height="142.46"/>
        <rect class="cls-16" x="38.2" y="314.02" width="519.62" height="137.59"/>
      </g>
    </g>
    <g>
      <g>
        <g>
          <path class="cls-7" d="m355.61,285.11c-14.14-36.33-25.3-107.13,26.98-166.89"/>
          <path class="cls-7" d="m384.56,161s-32.7,6.09-39.73,42.2"/>
          <path class="cls-7" d="m366.01,214.83s-20.8,13.54-19.69,36.2"/>
          <path class="cls-7" d="m340.94,118.44s16.2,23.09,9.83,56.17"/>
          <path class="cls-7" d="m328.86,166.05s14.05,39.46,15.24,65.47"/>
          <path class="cls-7" d="m325.35,212.18s15.81,15,21.37,41.46"/>
        </g>
        <path class="cls-13" d="m370.03,118.8c.32,6.93,6.2,12.3,13.15,11.98,6.93-.32,12.3-6.21,11.98-13.15-.32-6.93-6.2-12.31-13.14-11.99-6.94.33-12.31,6.21-11.99,13.16Z"/>
        <path class="cls-1" d="m331,123.75c.33,6.94,6.2,12.3,13.14,11.98,6.94-.32,12.31-6.2,11.99-13.14-.32-6.94-6.21-12.3-13.14-11.98-6.94.32-12.31,6.2-12,13.14Z"/>
        <path class="cls-13" d="m316.38,168.52c.32,6.94,6.2,12.31,13.14,11.98,6.94-.33,12.31-6.21,11.99-13.14-.32-6.94-6.2-12.31-13.14-11.99-6.94.32-12.31,6.2-11.98,13.15Z"/>
        <path class="cls-1" d="m366.95,163.16c.32,6.93,6.2,12.3,13.14,11.99,6.94-.32,12.31-6.2,11.99-13.15-.32-6.93-6.2-12.3-13.15-11.99-6.94.32-12.3,6.21-11.98,13.15Z"/>
        <path class="cls-1" d="m352.63,215.44c.32,6.94,6.2,12.3,13.15,11.98,6.94-.32,12.3-6.2,11.98-13.14-.32-6.94-6.2-12.3-13.14-11.98-6.94.31-12.31,6.2-11.98,13.14Z"/>
        <path class="cls-1" d="m310.84,212.85c.32,6.94,6.2,12.31,13.14,11.99,6.94-.32,12.31-6.21,11.98-13.15-.32-6.94-6.2-12.3-13.14-11.98s-12.31,6.2-11.99,13.14Z"/>
      </g>
      <g>
        <g>
          <path class="cls-8" d="m173.12,292.7c13.36-34.31,23.9-101.18-25.48-157.62"/>
          <path class="cls-8" d="m145.78,175.48s30.88,5.76,37.52,39.85"/>
          <path class="cls-8" d="m163.3,226.32s19.65,12.78,18.59,34.19"/>
          <path class="cls-8" d="m186.98,135.29s-15.3,21.8-9.28,53.05"/>
          <path class="cls-8" d="m198.38,180.26s-13.27,37.27-14.39,61.84"/>
          <path class="cls-8" d="m201.7,223.83s-14.94,14.17-20.18,39.15"/>
        </g>
        <path class="cls-12" d="m159.51,135.63c-.3,6.55-5.86,11.62-12.42,11.32-6.55-.3-11.62-5.86-11.32-12.42.3-6.55,5.86-11.62,12.41-11.32,6.55.31,11.62,5.87,11.32,12.43Z"/>
        <path class="cls-1" d="m196.37,140.3c-.31,6.56-5.86,11.62-12.42,11.32-6.55-.3-11.62-5.86-11.32-12.42.3-6.56,5.86-11.62,12.41-11.31,6.56.3,11.62,5.86,11.33,12.41Z"/>
        <path class="cls-12" d="m210.17,182.58c-.3,6.56-5.86,11.62-12.41,11.32-6.56-.31-11.63-5.86-11.32-12.41.3-6.56,5.86-11.62,12.41-11.32,6.55.3,11.62,5.85,11.32,12.41Z"/>
        <path class="cls-1" d="m162.41,177.53c-.3,6.55-5.86,11.61-12.41,11.32-6.56-.3-11.62-5.86-11.33-12.42.3-6.55,5.86-11.62,12.41-11.32,6.56.3,11.62,5.86,11.32,12.42Z"/>
        <path class="cls-1" d="m175.94,226.9c-.3,6.55-5.85,11.62-12.41,11.32-6.56-.3-11.62-5.86-11.32-12.41.3-6.56,5.86-11.62,12.41-11.32,6.55.3,11.62,5.85,11.32,12.41Z"/>
        <path class="cls-1" d="m215.41,224.45c-.31,6.56-5.86,11.63-12.42,11.33-6.55-.3-11.63-5.86-11.32-12.42.31-6.55,5.86-11.62,12.42-11.32,6.55.3,11.62,5.86,11.32,12.41Z"/>
      </g>
      <g>
        <path class="cls-12" d="m496.57,244.07s14.3,6.64,32.48-3.48c11.44-6.36,24.59-14.55,31.57-13.89,0,0-34.74-15.57-64.05,17.37Z"/>
        <path class="cls-12" d="m484.83,233.37s-8.12-13.52.01-32.67c5.11-12.05,11.85-26,10.45-32.87,0,0,19.18,32.88-10.46,65.54Z"/>
        <path class="cls-12" d="m451.14,288.28s-14.05-16.98-6.85-45.15c4.53-17.72,10.93-38.42,7.55-47.62,0,0,33.4,41.43-.71,92.77Z"/>
        <path class="cls-12" d="m419.1,369.94s28.6,9.27,60.69-14.06c20.19-14.67,43.21-33.21,56.58-33.57,0,0-69.35-21.48-117.27,47.63Z"/>
        <path class="cls-1" d="m505.21,218.24s13.76-2.17,22.12-18.53c5.26-10.3,10.88-22.78,16.33-25.74,0,0-33.15,5.67-38.45,44.27Z"/>
        <path class="cls-1" d="m451.17,313.1s21.66,4.09,42.83-15.84c13.33-12.53,28.35-28.14,38.04-29.63,0,0-52.41-9.22-80.87,45.47Z"/>
        <path class="cls-1" d="m424.8,331.15s-21.94-20.56-17.03-59.92c3.09-24.77,8.2-53.88,2.04-65.75,0,0,52.32,50.32,14.99,125.68Z"/>
        <path class="cls-4" d="m522.3,195.36s-104.64,130.09-122.07,214.9"/>
        <path class="cls-4" d="m530.27,230.8s-44.02,8.43-65.68,45.12"/>
        <path class="cls-4" d="m492.07,289.42s-53.5,18.5-70.89,62.61"/>
        <path class="cls-4" d="m455.05,352.14s-38.95,1.33-52.61,48.81"/>
        <path class="cls-4" d="m495.05,193.67s-3.62,40.96-32.34,85.17"/>
        <path class="cls-4" d="m457.51,242.02s2.66,36.66-19.09,76.68"/>
        <path class="cls-4" d="m426.32,297.16s4.92,29-14.01,74.92"/>
      </g>
      <g>
        <path class="cls-12" d="m104.98,213.82s-18.83-36.8-6.58-70.31c0,0,23.87,33.37,6.58,70.31Z"/>
        <path class="cls-12" d="m99.29,204.92s-31.39-38.24-74.03-40.79c0,0,25.24,42.13,74.03,40.79Z"/>
        <path class="cls-13" d="m124.64,243.36s-37.1-45.2-87.5-48.22c0,0,29.83,49.8,87.5,48.22Z"/>
        <path class="cls-12" d="m147.91,280.31s-31.39-38.24-74.04-40.8c0,0,25.23,42.13,74.04,40.8Z"/>
        <path class="cls-13" d="m172.23,319.97s-31.79-38.72-74.95-41.3c0,0,25.55,42.65,74.95,41.3Z"/>
        <path class="cls-13" d="m196.52,363.22s-30.97-37.73-73.05-40.25c0,0,24.89,41.56,73.05,40.25Z"/>
        <path class="cls-12" d="m130.68,253.49s-22.55-44.05-7.88-84.16c0,0,28.57,39.95,7.88,84.16Z"/>
        <path class="cls-13" d="m156.71,294.42s-26.91-52.56-9.41-100.44c0,0,34.1,47.68,9.41,100.44Z"/>
        <path class="cls-12" d="m181.31,334.81s-19.06-37.23-6.66-71.15c0,0,24.16,33.79,6.66,71.15Z"/>
        <path class="cls-12" d="m205.06,380.37s-22.54-44.05-7.88-84.16c0,0,28.56,39.95,7.88,84.16Z"/>
        <path class="cls-13" d="m88.45,189.95s-42.52-25.31-51.42-67.08c0,0,45.43,18.64,51.42,67.08Z"/>
        <path class="cls-5" d="m65.08,155.72s116.61,166.65,151.08,248.64"/>
        <line class="cls-5" x1="86.24" y1="224.34" x2="123.64" y2="243.02"/>
        <line class="cls-5" x1="152.73" y1="242.52" x2="156.51" y2="295"/>
        <line class="cls-5" x1="133.2" y1="300.1" x2="171.31" y2="319.5"/>
        <line class="cls-5" x1="160.92" y1="344.96" x2="195.95" y2="362.92"/>
      </g>
      <g>
        <path class="cls-12" d="m238.6,211.33s-17.15,1.03-31.56-16.48c-9.07-11.01-19.14-24.56-26.49-26.68,0,0,41.44-1.94,58.04,43.16Z"/>
        <path class="cls-12" d="m254.76,205.14s13.62-10.47,13.01-33.14c-.38-14.25-1.66-31.09,2.5-37.5,0,0-32.56,25.71-15.52,70.64Z"/>
        <path class="cls-12" d="m267.04,274.27s21.02-11.62,24.94-43.06c2.47-19.78,4.23-43.33,11.32-51.32,0,0-50.4,28.71-36.26,94.38Z"/>
        <path class="cls-12" d="m267,369.86s-32.7-2-55.95-38.45c-14.63-22.93-30.59-50.92-44.01-56.6,0,0,78.9,5.85,99.96,95.05Z"/>
        <path class="cls-1" d="m240.13,181.68s-13.09-7.69-15.05-27.62c-1.23-12.54-1.95-27.44-6.3-32.61,0,0,31.36,18.97,21.35,60.22Z"/>
        <path class="cls-1" d="m257.13,299.43s-23.6-4.48-37.14-33.13c-8.52-18.02-17.55-39.84-26.77-45.22,0,0,56.84,11.54,63.91,78.35Z"/>
        <path class="cls-1" d="m276.68,328.25s30.44-12.11,41.15-53.99c6.74-26.36,13.17-57.92,24.14-67.51,0,0-73.13,30.18-65.29,121.5Z"/>
        <path class="cls-6" d="m231.91,151.65s54.28,173.66,38.16,266.63"/>
        <path class="cls-6" d="m209.7,184.42s41.3,26.1,48.63,71.94"/>
        <path class="cls-6" d="m225.08,259.12s46.89,40.09,46.95,91.77"/>
        <path class="cls-6" d="m237.63,337.48s38.98,16.88,33.91,70.48"/>
        <path class="cls-6" d="m260.23,160.8s-12.66,42.99-1.14,99.28"/>
        <path class="cls-6" d="m279.02,224.8s-17.31,36.12-11.19,85.38"/>
        <path class="cls-6" d="m288.69,293.17s-16.55,27.45-15.65,81.57"/>
      </g>
      <g>
        <path class="cls-12" d="m398.04,224.87s16.3-37.98,1.8-70.6c0,0-21.55,34.92-1.8,70.6Z"/>
        <path class="cls-12" d="m403.11,215.6s28.72-40.28,71.09-45.72c0,0-22.32,43.75-71.09,45.72Z"/>
        <path class="cls-13" d="m380.43,255.67s33.94-47.61,84.03-54.05c0,0-26.38,51.71-84.03,54.05Z"/>
        <path class="cls-12" d="m359.72,294.12s28.72-40.28,71.1-45.73c0,0-22.32,43.74-71.1,45.73Z"/>
        <path class="cls-13" d="m338.14,335.34s29.09-40.79,71.98-46.29c0,0-22.6,44.29-71.98,46.29Z"/>
        <path class="cls-13" d="m316.84,380.13s28.34-39.74,70.15-45.11c0,0-22.02,43.15-70.15,45.11Z"/>
        <path class="cls-12" d="m375.08,266.19s19.51-45.47,2.15-84.5c0,0-25.79,41.8-2.15,84.5Z"/>
        <path class="cls-13" d="m351.9,308.79s23.28-54.26,2.57-100.85c0,0-30.79,49.88-2.57,100.85Z"/>
        <path class="cls-12" d="m330.09,350.76s16.49-38.44,1.82-71.44c0,0-21.81,35.35-1.82,71.44Z"/>
        <path class="cls-12" d="m309.49,397.83s19.5-45.48,2.14-84.51c0,0-25.79,41.79-2.14,84.51Z"/>
        <path class="cls-13" d="m412.9,199.94s40.71-28.14,46.76-70.42c0,0-44.06,21.69-46.76,70.42Z"/>
        <path class="cls-5" d="m433.9,164.2s-105.03,174.17-133.87,258.32"/>
        <line class="cls-5" x1="417.44" y1="234.09" x2="381.4" y2="255.27"/>
        <line class="cls-5" x1="352.34" y1="256.74" x2="352.13" y2="309.36"/>
        <line class="cls-5" x1="375.74" y1="312.86" x2="339.03" y2="334.81"/>
        <line class="cls-5" x1="351.11" y1="359.49" x2="317.38" y2="379.8"/>
      </g>
      <g>
        <path class="cls-1" d="m237.81,351.69c8.24,51.95-11.36,82.36-40.75,87.02-29.4,4.66-57.45-18.19-65.69-70.13-8.24-51.95,35.84-117.97,35.84-117.97,0,0,62.36,49.14,70.6,101.08Z"/>
        <line class="cls-3" x1="173.29" y1="288.95" x2="199.4" y2="453.46"/>
        <g>
          <line class="cls-3" x1="204.66" y1="314.73" x2="182.27" y2="345.55"/>
          <line class="cls-3" x1="210.13" y1="349.26" x2="187.75" y2="380.08"/>
          <line class="cls-3" x1="215.61" y1="383.79" x2="193.23" y2="414.61"/>
        </g>
        <g>
          <line class="cls-3" x1="149.35" y1="309.88" x2="180.17" y2="332.25"/>
          <line class="cls-3" x1="154.83" y1="344.41" x2="185.65" y2="366.79"/>
          <line class="cls-3" x1="160.3" y1="378.94" x2="191.12" y2="401.32"/>
        </g>
      </g>
      <g>
        <path class="cls-12" d="m420.75,432.77c-34.75,46.22-73.77,53.98-99.93,34.32-26.15-19.67-29.53-59.3,5.22-105.52,34.75-46.22,120.63-61.86,120.63-61.86,0,0,8.83,86.84-25.92,133.06Z"/>
        <line class="cls-10" x1="421.02" y1="333.83" x2="310.96" y2="480.21"/>
        <g>
          <line class="cls-10" x1="424.62" y1="378.31" x2="383.15" y2="384.19"/>
          <line class="cls-10" x1="401.52" y1="409.04" x2="360.05" y2="414.91"/>
          <line class="cls-10" x1="378.41" y1="439.76" x2="336.95" y2="445.64"/>
        </g>
        <g>
          <line class="cls-10" x1="386.17" y1="330.89" x2="392.05" y2="372.35"/>
          <line class="cls-10" x1="363.07" y1="361.62" x2="368.95" y2="403.08"/>
          <line class="cls-10" x1="339.97" y1="392.34" x2="345.85" y2="433.8"/>
        </g>
      </g>
      <g>
        <path class="cls-12" d="m305.72,352.86c33.48,47.15,29.01,86.68,2.33,105.63-26.68,18.94-65.47,10.12-98.95-37.03-33.48-47.15-22.27-133.72-22.27-133.72,0,0,85.42,17.97,118.89,65.12Z"/>
        <line class="cls-10" x1="211.54" y1="322.54" x2="317.55" y2="471.87"/>
        <g>
          <line class="cls-10" x1="255.01" y1="332.63" x2="248.01" y2="373.92"/>
          <line class="cls-10" x1="277.27" y1="363.98" x2="270.27" y2="405.26"/>
          <line class="cls-10" x1="299.52" y1="395.32" x2="292.52" y2="436.61"/>
        </g>
        <g>
          <line class="cls-10" x1="198.15" y1="354.84" x2="239.44" y2="361.85"/>
          <line class="cls-10" x1="220.41" y1="386.19" x2="261.69" y2="393.19"/>
          <line class="cls-10" x1="242.66" y1="417.53" x2="283.95" y2="424.53"/>
        </g>
      </g>
      <g>
        <path class="cls-1" d="m370.08,398.46c-7.46,52.06-35.17,75.33-64.63,71.11-29.46-4.22-49.51-34.34-42.05-86.4,7.46-52.06,69.07-102.13,69.07-102.13,0,0,45.07,65.36,37.61,117.42Z"/>
        <line class="cls-3" x1="326.96" y1="319.47" x2="303.33" y2="484.34"/>
        <g>
          <line class="cls-3" x1="349.31" y1="353.36" x2="318.84" y2="376.19"/>
          <line class="cls-3" x1="344.35" y1="387.96" x2="313.87" y2="410.8"/>
          <line class="cls-3" x1="339.39" y1="422.57" x2="308.91" y2="445.41"/>
        </g>
        <g>
          <line class="cls-3" x1="297.9" y1="332.39" x2="320.74" y2="362.86"/>
          <line class="cls-3" x1="292.94" y1="366.99" x2="315.78" y2="397.47"/>
          <line class="cls-3" x1="287.98" y1="401.6" x2="310.82" y2="432.08"/>
        </g>
      </g>
    </g>
  </g>
</svg>