<?xml version="1.0" encoding="UTF-8"?>
<svg id="Capa_1" data-name="Capa 1" xmlns="http://www.w3.org/2000/svg" viewBox="0 0 101.7 101.7">
  <defs>
    <style>
      .cls-1 {
        fill: #d58e08;
      }

      .cls-2 {
        fill: #1d1d1b;
      }
    </style>
  </defs>
  <rect class="cls-2" width="101.7" height="101.7"/>
  <path class="cls-1" d="M55.89,33.72l9.84,23.16,8.64-23.16h16.32l-23.64,55.56-16.8-34.8-15.36,34.8L11.01,33.72H27.33l9.72,22.2,7.32-16.2-2.76-6h14.28Z"/>
  <g>
    <g>
      <path class="cls-1" d="M68.83,48.11c-5.38-8.71-.74-23.26-.69-23.4l.52,.17c-.05,.14-4.61,14.46,.64,22.95l-.46,.29Z"/>
      <g>
        <path class="cls-1" d="M67.66,23.65s-2.35-7.53,.16-8.06c2.51-.52,1.37,7.48,1.25,8.07,0,0,4.5-7.26,6.36-4.43,1.03,1.57-4.2,4.96-5.37,5.07,0,0,6.7-1.89,7.17,.15,.47,2.04-5.12,1.89-7.28,1.19,0,0,6.44,2.13,4.81,4.35-1.63,2.22-5.63-3.59-5.63-3.59,0,0,2.87,7.46,.36,7.4-2.51-.06-1.7-6.93-1.7-6.93,0,0-3.15,5.36-4.9,4.26-1.75-1.11,2.22-4.79,4.56-5.38,0,0-6.31,2.23-7.36-.28-1.05-2.51,6.03-1.55,7.25-.8,0,0-7.31-3.52-5.85-5.73,1.46-2.22,6.17,4.71,6.17,4.71Z"/>
        <path class="cls-2" d="M68.6,23.52c2.2,.05,1.88,3.01-.48,3.01s-1.72-3.06,.48-3.01Z"/>
      </g>
    </g>
    <path class="cls-1" d="M66.06,42.05s-4.59,.2-6.04-4.16c0,0,4.06-.41,6.04,4.16Z"/>
    <path class="cls-1" d="M65.69,36.39s-5.53,.24-7.27-5.01c0,0,4.9-.49,7.27,5.01Z"/>
    <path class="cls-1" d="M72.81,33.74s.24,5.5-5,7.24c0,0-.49-4.88,5-7.24Z"/>
  </g>
</svg>